<svg xmlns="http://www.w3.org/2000/svg" version="1.1" xmlns:xlink="http://www.w3.org/1999/xlink" xmlns:svgjs="http://svgjs.dev/svgjs" width="1000" height="1125" viewBox="0 0 1000 1125"><g transform="matrix(1,0,0,1,0,0)"><svg viewBox="0 0 320 360" data-background-color="#ffffff" preserveAspectRatio="xMidYMid meet" height="1125" width="1000" xmlns="http://www.w3.org/2000/svg" xmlns:xlink="http://www.w3.org/1999/xlink"><g id="tight-bounds" transform="matrix(1,0,0,1,0,0)"><svg viewBox="0 0 320 360" height="360" width="320"><g><svg></svg></g><g><svg viewBox="0 0 320 360" height="360" width="320"><g><path d="M297.491 100.645c-12.426-21.51-112.674-79.355-137.491-79.355-24.817 0-125.028 57.845-137.491 79.355-11.591 20.02-11.591 138.726 0 158.746 12.463 21.474 112.674 79.319 137.491 79.319 24.817 0 125.064-57.845 137.491-79.355 11.591-20.02 11.591-138.69 0-158.71zM309.481 93.705c-14.461-24.998-119.469-86.295-149.481-86.295-30.012 0-135.02 61.297-149.481 86.295-14.025 24.199-14.025 148.391 0 172.59 14.461 24.998 119.469 86.295 149.481 86.295 30.012 0 135.02-61.297 149.481-86.259 14.025-24.235 14.025-148.427 0-172.626zM300.906 261.353c-12.753 22.055-115.472 81.317-140.906 81.318-25.434 0-128.153-59.298-140.906-81.354-11.881-20.529-11.881-142.178 0-162.707 12.753-22.019 115.472-81.281 140.906-81.281 25.434 0 128.153 59.298 140.906 81.318 11.881 20.529 11.881 142.178 0 162.706z" fill="#37067b" fill-rule="nonzero" stroke="none" stroke-width="1" stroke-linecap="butt" stroke-linejoin="miter" stroke-miterlimit="10" stroke-dasharray="" stroke-dashoffset="0" font-family="none" font-weight="none" font-size="none" text-anchor="none" style="mix-blend-mode: normal" data-fill-palette-color="tertiary"></path></g><g transform="matrix(1,0,0,1,75.97826086956522,90)"><svg viewBox="0 0 168.04347826086956 180" height="180" width="168.04347826086956"><g><svg viewBox="0 0 168.04347826086956 180" height="180" width="168.04347826086956"><g><svg viewBox="0 0 168.04347826086956 180" height="180" width="168.04347826086956"><g><svg viewBox="0 0 168.04347826086956 180" height="180" width="168.04347826086956"><g id="textblocktransform"><svg viewBox="0 0 168.04347826086956 180" height="180" width="168.04347826086956" id="textblock"><g><svg viewBox="0 0 168.04347826086956 180" height="180" width="168.04347826086956"><g transform="matrix(1,0,0,1,0,0)"><svg width="168.04347826086956" viewBox="0.85 -40.43 37.75 40.43" height="180" data-palette-color="#fbfbfa"><path d="M6.13-40.43L15.8-20.34 14.92-18.41 4.37-40.43 6.13-40.43ZM9.64-40.43L17.55-24.19 16.65-22.27 7.89-40.43 9.64-40.43ZM13.16-40.43L19.31-28.03 18.43-26.1 11.4-40.43 13.16-40.43ZM17.09 0L17.09-13.62 29.81-40.43 31.57-40.43 18.85-13.62 18.85 0 17.09 0ZM20.61 0L20.61-13.62 33.33-40.43 35.08-40.43 22.36-13.62 22.36 0 20.61 0ZM24.12 0L24.12-13.62 36.84-40.43 38.6-40.43 25.88-13.62 25.88 0 24.12 0ZM2.61-40.43L14.45-15.48 26.29-40.43 28.05-40.43 15.33-13.62 15.33 0 13.57 0 13.57-13.62 0.85-40.43 2.61-40.43Z" opacity="1" transform="matrix(1,0,0,1,0,0)" fill="#fbfbfa" class="undefined-text-0" data-fill-palette-color="quaternary" id="text-0"></path></svg></g></svg></g></svg></g></svg></g><g></g></svg></g></svg></g></svg></g></svg></g><defs></defs></svg><rect width="320" height="360" fill="none" stroke="none" visibility="hidden"></rect></g></svg></g></svg>