<svg xmlns="http://www.w3.org/2000/svg" viewBox="96 0 320 320" height="320" width="320"><g><path d="M96 160c0-88.366 71.634-160 160-160 88.366 0 160 71.634 160 160 0 88.366-71.634 160-160 160-88.366 0-160-71.634-160-160z" fill="#fbeaab" fill-rule="nonzero" stroke="none" stroke-width="1" stroke-linecap="butt" stroke-linejoin="miter" stroke-miterlimit="10" stroke-dasharray="" stroke-dashoffset="0" font-family="none" font-weight="none" font-size="none" text-anchor="none" style="mix-blend-mode: normal" data-fill-palette-color="tertiary"/></g><g transform="matrix(1,0,0,1,153.6,107.25077490774906)"><svg viewBox="0 0 204.8 105.49845018450188" height="105.49845018450188" width="204.8"><g><svg viewBox="0 0 204.8 105.49845018450188" height="105.49845018450188" width="204.8"><g><svg viewBox="0 0 204.8 105.49845018450188" height="105.49845018450188" width="204.8"><g id="textblocktransform"><svg viewBox="0 0 204.8 105.49845018450188" height="105.49845018450188" width="204.8" id="textblock"><g><svg viewBox="0 0 204.8 105.49845018450188" height="105.49845018450188" width="204.8"><g transform="matrix(1,0,0,1,0,0)"><svg width="204.8" viewBox="2.55 -34.55 67.75 34.9" height="105.49845018450188" data-palette-color="#2c2c2c"><path d="M23.65-24.85L23.65-24.85Q23.65-25.9 22.78-26.65 21.9-27.4 20.7-27.4L20.7-27.4Q18.3-27.4 16.75-24.68 15.2-21.95 15.2-18.5L15.2-18.5Q15.2-15.85 16.2-13.73 17.2-11.6 19.1-10.35 21-9.1 23.5-9.1L23.5-9.1Q25.35-9.1 27.05-9.83 28.75-10.55 29.8-11.43 30.85-12.3 31.98-13.03 33.1-13.75 33.95-13.75L33.95-13.75Q35.05-13.75 35.85-12.88 36.65-12 36.65-11.05L36.65-11.05Q36.65-10 36.02-8.6 35.4-7.2 34.05-5.63 32.7-4.05 30.9-2.73 29.1-1.4 26.43-0.53 23.75 0.35 20.8 0.35L20.8 0.35Q16.9 0.35 13.58-0.83 10.25-2 7.8-4.17 5.35-6.35 3.95-9.65 2.55-12.95 2.55-17.05L2.55-17.05Q2.55-25.15 7.4-29.85 12.25-34.55 20.1-34.55L20.1-34.55Q24.1-34.55 27.5-33.2 30.9-31.85 32.9-29.45 34.9-27.05 34.9-24.2L34.9-24.2Q34.9-20.9 32.7-18.23 30.5-15.55 27-15.55L27-15.55Q25-15.55 23.4-16.65 21.8-17.75 21.8-19.8L21.8-19.8Q21.8-20.75 22.73-22.45 23.65-24.15 23.65-24.85ZM60.15-15L60.15-7.5Q60.15-3.45 58.7-1.73 57.25 0 54.25 0L54.25 0Q51.35 0 50-1.58 48.65-3.15 48.6-7.15L48.6-7.15 48.55-15.25 40.85-24.25Q38.75-26.65 38.75-28.4L38.75-28.4Q38.75-31.15 40.85-32.75L40.85-32.75Q42.85-34.25 44.4-34.25L44.4-34.25Q46.55-34.25 48.25-32.3L48.25-32.3 54.35-25.2 59.45-31.15Q62-34.2 64.9-34.2L64.9-34.2Q67.05-34.2 68.25-33L68.25-33Q70.3-30.95 70.3-29.05L70.3-29.05Q70.3-28 69.6-26.83 68.9-25.65 67.35-23.8L67.35-23.8 60.15-15Z" opacity="1" transform="matrix(1,0,0,1,0,0)" fill="#2c2c2c" class="undefined-text-0" data-fill-palette-color="quaternary" id="text-0"/></svg></g></svg></g></svg></g></svg></g></svg></g></svg></g></svg>